<?xml version="1.0" encoding="UTF-8" standalone="no"?>
<!-- Created with Inkscape (http://www.inkscape.org/) -->

<svg
   width="210mm"
   height="297mm"
   viewBox="0 0 210 297"
   version="1.1"
   id="svg1"
   xml:space="preserve"
   inkscape:version="1.4.1 (93de688d07, 2025-03-30)"
   sodipodi:docname="logo.svg"
   xmlns:inkscape="http://www.inkscape.org/namespaces/inkscape"
   xmlns:sodipodi="http://sodipodi.sourceforge.net/DTD/sodipodi-0.dtd"
   xmlns="http://www.w3.org/2000/svg"
   xmlns:svg="http://www.w3.org/2000/svg"><sodipodi:namedview
     id="namedview1"
     pagecolor="#ffffff"
     bordercolor="#000000"
     borderopacity="0.25"
     inkscape:showpageshadow="2"
     inkscape:pageopacity="0.0"
     inkscape:pagecheckerboard="0"
     inkscape:deskcolor="#d1d1d1"
     inkscape:document-units="mm"
     inkscape:zoom="1"
     inkscape:cx="362.5"
     inkscape:cy="442.5"
     inkscape:window-width="2508"
     inkscape:window-height="1412"
     inkscape:window-x="0"
     inkscape:window-y="0"
     inkscape:window-maximized="1"
     inkscape:current-layer="layer1" /><defs
     id="defs1"><inkscape:path-effect
   effect="fillet_chamfer"
   id="path-effect3"
   is_visible="true"
   lpeversion="1"
   nodesatellites_param="F,0,0,1,0,2.3812499,0,1 @ F,0,0,1,0,2.3812499,0,1 @ F,0,0,1,0,2.3812499,0,1 @ F,0,0,1,0,2.3812499,0,1 @ F,0,0,1,0,2.3812499,0,1 @ F,0,0,1,0,2.3812499,0,1 @ F,0,0,1,0,2.3812499,0,1 @ F,0,0,1,0,2.3812499,0,1 @ F,0,0,1,0,2.3812499,0,1 @ F,0,0,1,0,2.3812499,0,1 @ F,0,0,1,0,2.3812499,0,1 @ F,0,0,1,0,2.3812499,0,1 @ F,0,0,1,0,2.3812499,0,1 @ F,0,0,1,0,2.3812499,0,1 @ F,0,0,1,0,2.3812499,0,1 @ F,0,0,1,0,2.3812499,0,1 @ F,0,0,1,0,2.3812499,0,1 @ F,0,0,1,0,2.3812499,0,1 @ F,0,0,1,0,2.3812499,0,1 @ F,0,0,1,0,2.3812499,0,1 @ F,0,0,1,0,2.3812499,0,1 @ F,0,0,1,0,2.3812499,0,1 @ F,0,0,1,0,2.3812499,0,1 @ F,0,0,1,0,2.3812499,0,1 @ F,0,0,1,0,2.3812499,0,1 @ F,0,0,1,0,2.3812499,0,1 @ F,0,0,1,0,2.3812499,0,1 @ F,0,0,1,0,2.3812499,0,1 @ F,0,0,1,0,2.3812499,0,1 @ F,0,0,1,0,2.3812499,0,1 @ F,0,0,1,0,2.3812499,0,1 @ F,0,0,1,0,2.3812499,0,1 @ F,0,0,1,0,2.3812499,0,1 @ F,0,0,1,0,2.3812499,0,1 @ F,0,0,1,0,2.3812499,0,1 @ F,0,0,1,0,2.3812499,0,1 @ F,0,0,1,0,2.3812499,0,1 @ F,0,0,1,0,2.3812499,0,1 @ F,0,0,1,0,2.3812499,0,1 @ F,0,0,1,0,2.3812499,0,1 @ F,0,0,1,0,2.3812499,0,1 @ F,0,0,1,0,2.3812499,0,1 @ F,0,0,1,0,2.3812499,0,1 @ F,0,0,1,0,2.3812499,0,1 @ F,0,0,1,0,2.3812499,0,1 @ F,0,0,1,0,2.3812499,0,1 @ F,0,0,1,0,2.3812499,0,1 @ F,0,0,1,0,2.3812499,0,1 @ F,0,0,1,0,2.3812499,0,1 @ F,0,0,1,0,2.3812499,0,1 @ F,0,0,1,0,2.3812499,0,1 @ F,0,0,1,0,2.3812499,0,1 @ F,0,0,1,0,2.3812499,0,1 @ F,0,0,1,0,2.3812499,0,1 @ F,0,0,1,0,2.3812499,0,1 @ F,0,0,1,0,2.3812499,0,1 @ F,0,0,1,0,2.3812499,0,1 @ F,0,0,1,0,2.3812499,0,1 @ F,0,0,1,0,2.3812499,0,1 | F,0,0,1,0,2.3812499,0,1 @ F,0,0,1,0,2.3812499,0,1 @ F,0,0,1,0,2.3812499,0,1 @ F,0,0,1,0,2.3812499,0,1 @ F,0,0,1,0,2.3812499,0,1 @ F,0,0,1,0,2.3812499,0,1 @ F,0,0,1,0,2.3812499,0,1 @ F,0,0,1,0,2.3812499,0,1 @ F,0,0,1,0,2.3812499,0,1 @ F,0,0,1,0,2.3812499,0,1 @ F,0,0,1,0,2.3812499,0,1 @ F,0,0,1,0,2.3812499,0,1 @ F,0,0,1,0,2.3812499,0,1 @ F,0,0,1,0,2.3812499,0,1 @ F,0,0,1,0,2.3812499,0,1 @ F,0,0,1,0,2.3812499,0,1 @ F,0,0,1,0,2.3812499,0,1 @ F,0,0,1,0,2.3812499,0,1 @ F,0,0,1,0,2.3812499,0,1 @ F,0,0,1,0,2.3812499,0,1 @ F,0,0,1,0,2.3812499,0,1 @ F,0,0,1,0,2.3812499,0,1 @ F,0,0,1,0,2.3812499,0,1 @ F,0,0,1,0,2.3812499,0,1 @ F,0,0,1,0,2.3812499,0,1 @ F,0,0,1,0,2.3812499,0,1 @ F,0,0,1,0,2.3812499,0,1 @ F,0,0,1,0,2.3812499,0,1 @ F,0,0,1,0,2.3812499,0,1 @ F,0,0,1,0,2.3812499,0,1 @ F,0,0,1,0,2.3812499,0,1 @ F,0,0,1,0,2.3812499,0,1"
   radius="10"
   unit="px"
   method="auto"
   mode="F"
   chamfer_steps="1"
   flexible="false"
   use_knot_distance="true"
   apply_no_radius="true"
   apply_with_radius="true"
   only_selected="false"
   hide_knots="false" /><inkscape:path-effect
   effect="fillet_chamfer"
   id="path-effect2"
   is_visible="true"
   lpeversion="1"
   nodesatellites_param="F,0,0,1,0,1.3229166,0,1 @ F,0,0,1,0,1.3229166,0,1 @ F,0,0,1,0,1.3229166,0,1 @ F,0,0,1,0,1.3229166,0,1 @ F,0,0,1,0,1.3229166,0,1 @ F,0,0,1,0,1.3229166,0,1 @ F,0,0,1,0,1.3229166,0,1 @ F,0,0,1,0,1.3229166,0,1 @ F,0,0,1,0,1.3229166,0,1 @ F,0,0,1,0,1.3229166,0,1 @ F,0,0,1,0,1.3229166,0,1 @ F,0,0,1,0,1.3229166,0,1 @ F,0,0,1,0,1.3229166,0,1 @ F,0,0,1,0,1.3229166,0,1 @ F,0,0,1,0,1.3229166,0,1 @ F,0,0,1,0,1.3229166,0,1 @ F,0,0,1,0,1.3229166,0,1 @ F,0,0,1,0,1.3229166,0,1 @ F,0,0,1,0,1.3229166,0,1 @ F,0,0,1,0,1.3229166,0,1"
   radius="5"
   unit="px"
   method="auto"
   mode="F"
   chamfer_steps="1"
   flexible="false"
   use_knot_distance="true"
   apply_no_radius="true"
   apply_with_radius="true"
   only_selected="false"
   hide_knots="false" /><inkscape:path-effect
   effect="fillet_chamfer"
   id="path-effect1"
   is_visible="true"
   lpeversion="1"
   nodesatellites_param="F,0,0,1,0,1.3229166,0,1 @ F,0,0,1,0,1.3229166,0,1 @ F,0,0,1,0,1.3229166,0,1 @ F,0,0,1,0,1.3229166,0,1 @ F,0,0,1,0,1.3229166,0,1 @ F,0,0,1,0,1.3229166,0,1 @ F,0,0,1,0,1.3229166,0,1 @ F,0,0,1,0,1.3229166,0,1 @ F,0,0,1,0,1.3229166,0,1 @ F,0,0,1,0,1.3229166,0,1 @ F,0,0,1,0,1.3229166,0,1 @ F,0,0,1,0,1.3229166,0,1 @ F,0,0,1,0,1.3229166,0,1 @ F,0,0,1,0,1.3229166,0,1 @ F,0,0,1,0,1.3229166,0,1 @ F,0,0,1,0,1.3229166,0,1 @ F,0,0,1,0,1.3229166,0,1 @ F,0,0,1,0,1.3229166,0,1 @ F,0,0,1,0,1.3229166,0,1 @ F,0,0,1,0,1.3229166,0,1 @ F,0,0,1,0,1.3229166,0,1 @ F,0,0,1,0,1.3229166,0,1 @ F,0,0,1,0,1.3229166,0,1 @ F,0,0,1,0,1.3229166,0,1 @ F,0,0,1,0,1.3229166,0,1 @ F,0,0,1,0,1.3229166,0,1 @ F,0,0,1,0,1.3229166,0,1 @ F,0,0,1,0,1.3229166,0,1 @ F,0,0,1,0,1.3229166,0,1 @ F,0,0,1,0,1.3229166,0,1 @ F,0,0,1,0,1.3229166,0,1 | F,0,0,1,0,1.3229166,0,1 @ F,0,0,1,0,1.3229166,0,1 @ F,0,0,1,0,1.3229166,0,1 @ F,0,0,1,0,1.3229166,0,1 @ F,0,0,1,0,1.3229166,0,1 @ F,0,0,1,0,1.3229166,0,1 @ F,0,0,1,0,1.3229166,0,1 @ F,0,0,1,0,1.3229166,0,1 @ F,0,0,1,0,1.3229166,0,1 @ F,0,0,1,0,1.3229166,0,1 @ F,0,0,1,0,1.3229166,0,1 @ F,0,0,1,0,1.3229166,0,1 @ F,0,0,1,0,1.3229166,0,1 @ F,0,0,1,0,1.3229166,0,1 @ F,0,0,1,0,1.3229166,0,1 @ F,0,0,1,0,1.3229166,0,1 | F,0,0,1,0,1.3229166,0,1 @ F,0,0,1,0,1.3229166,0,1 @ F,0,0,1,0,1.3229166,0,1 @ F,0,0,1,0,1.3229166,0,1 @ F,0,0,1,0,1.3229166,0,1 @ F,0,0,1,0,1.3229166,0,1 @ F,0,0,1,0,1.3229166,0,1 @ F,0,0,1,0,1.3229166,0,1 @ F,0,0,1,0,1.3229166,0,1 @ F,0,0,1,0,1.3229166,0,1 @ F,0,0,1,0,1.3229166,0,1 @ F,0,0,1,0,1.3229166,0,1 | F,0,0,1,0,1.3229166,0,1 @ F,0,0,1,0,1.3229166,0,1 @ F,0,0,1,0,1.3229166,0,1 @ F,0,0,1,0,1.3229166,0,1 | F,0,0,1,0,1.3229166,0,1 @ F,0,0,1,0,1.3229166,0,1 @ F,0,0,1,0,1.3229166,0,1 @ F,0,0,1,0,1.3229166,0,1 @ F,0,0,1,0,1.3229166,0,1 @ F,0,0,1,0,1.3229166,0,1 @ F,0,0,1,0,1.3229166,0,1 @ F,0,0,1,0,1.3229166,0,1 @ F,0,0,1,0,1.3229166,0,1 @ F,0,0,1,0,1.3229166,0,1 @ F,0,0,1,0,1.3229166,0,1 @ F,0,0,1,0,1.3229166,0,1 @ F,0,0,1,0,1.3229166,0,1 @ F,0,0,1,0,1.3229166,0,1 @ F,0,0,1,0,1.3229166,0,1 @ F,0,0,1,0,1.3229166,0,1 @ F,0,0,1,0,1.3229166,0,1 @ F,0,0,1,0,1.3229166,0,1 @ F,0,0,1,0,1.3229166,0,1 @ F,0,0,1,0,1.3229166,0,1 @ F,0,0,1,0,1.3229166,0,1 @ F,0,0,1,0,1.3229166,0,1 @ F,0,0,1,0,1.3229166,0,1 @ F,0,0,1,0,1.3229166,0,1 @ F,0,0,1,0,1.3229166,0,1 @ F,0,0,1,0,1.3229166,0,1 @ F,0,0,1,0,1.3229166,0,1 @ F,0,0,1,0,1.3229166,0,1 @ F,0,0,1,0,1.3229166,0,1 @ F,0,0,1,0,1.3229166,0,1 @ F,0,0,1,0,1.3229166,0,1 | F,0,0,1,0,1.3229166,0,1 @ F,0,0,1,0,1.3229166,0,1 @ F,0,0,1,0,1.3229166,0,1 @ F,0,0,1,0,1.3229166,0,1 @ F,0,0,1,0,1.3229166,0,1 @ F,0,0,1,0,1.3229166,0,1 @ F,0,0,1,0,1.3229166,0,1 @ F,0,0,1,0,1.3229166,0,1 @ F,0,0,1,0,1.3229166,0,1 @ F,0,0,1,0,1.3229166,0,1 @ F,0,0,1,0,1.3229166,0,1 @ F,0,0,1,0,1.3229166,0,1 @ F,0,0,1,0,1.3229166,0,1 @ F,0,0,1,0,1.3229166,0,1 @ F,0,0,1,0,1.3229166,0,1 @ F,0,0,1,0,1.3229166,0,1"
   radius="4"
   unit="px"
   method="auto"
   mode="F"
   chamfer_steps="1"
   flexible="false"
   use_knot_distance="true"
   apply_no_radius="true"
   apply_with_radius="true"
   only_selected="false"
   hide_knots="false" />
	
</defs><g
     inkscape:label="Layer 1"
     inkscape:groupmode="layer"
     id="layer1"><g
       id="g1"
       transform="matrix(-1.1527748,1.0201131,-1.0201131,-1.1527748,119.0577,135.13854)"
       inkscape:label="vinyl"
       style="fill:#501400;fill-opacity:1">
		<circle
   style="fill:#501400;fill-opacity:1"
   cx="27.667"
   cy="27.667"
   r="3.618"
   id="circle1"
   inkscape:label="mitte" />
		<path
   style="fill:#501400;fill-opacity:1"
   d="M 27.667,0 C 12.387,0 0,12.387 0,27.667 c 0,15.28 12.387,27.667 27.667,27.667 15.28,0 27.667,-12.387 27.667,-27.667 C 55.334,12.387 42.947,0 27.667,0 Z M 17.118,6.881 c 3.167,-1.61 6.752,-2.518 10.549,-2.518 0.223,0 0.444,0.003 0.665,0.009 0.367,0.01 0.619,0.922 0.564,2.025 l -0.282,5.677 c -0.055,1.103 -0.289,1.986 -0.523,1.979 -0.141,-0.004 -0.282,-0.006 -0.424,-0.006 -1.997,0 -3.894,0.43 -5.603,1.202 -1.007,0.455 -2.212,0.184 -2.774,-0.767 L 16.394,9.585 C 15.832,8.634 16.133,7.382 17.118,6.881 Z m -1.132,10.414 -4.278,-3.742 c -0.832,-0.727 -0.918,-1.994 -0.119,-2.756 0.019,-0.018 0.037,-0.035 0.057,-0.053 0.802,-0.76 2.059,-0.605 2.737,0.266 l 3.494,4.484 c 0.679,0.871 0.837,1.889 0.391,2.314 -0.447,0.427 -1.45,0.214 -2.282,-0.513 z m 1.891,10.372 c 0,-5.407 4.383,-9.79 9.79,-9.79 5.407,0 9.79,4.383 9.79,9.79 0,5.407 -4.383,9.79 -9.79,9.79 -5.407,0 -9.79,-4.383 -9.79,-9.79 z M 38.17,48.476 c -3.156,1.596 -6.725,2.495 -10.503,2.495 -0.248,0 -0.495,-0.004 -0.741,-0.011 -0.409,-0.013 -0.692,-0.929 -0.632,-2.032 l 0.31,-5.676 c 0.061,-1.103 0.322,-1.981 0.586,-1.972 0.158,0.005 0.317,0.008 0.477,0.008 1.834,0 3.582,-0.362 5.179,-1.018 1.022,-0.42 2.275,-0.144 2.877,0.782 l 3.101,4.77 c 0.602,0.925 0.332,2.155 -0.654,2.654 z m 5.449,-3.82 c -0.766,0.72 -2.005,0.551 -2.703,-0.305 l -3.59,-4.407 c -0.698,-0.856 -0.876,-1.848 -0.435,-2.255 0.442,-0.407 1.443,-0.179 2.274,0.549 l 4.28,3.744 c 0.832,0.727 0.941,1.954 0.174,2.674 z"
   id="path1-6" />
	</g><g
       id="g3"
       inkscape:label="gig Text"
       style="fill:#ff4b11;fill-opacity:1"><path
         d="m 77.695227,185.34217 c -2.828026,-0.09 -5.426357,-0.4724 -7.794994,-1.1471 -0.702597,-0.20013 -1.827021,-0.57495 -2.512145,-0.82861 -2.007021,-0.7431 -3.832143,-1.64991 -5.475368,-2.72042 -0.612099,-0.39877 -1.575537,-1.08926 -2.154589,-1.53471 -1.386077,-1.06626 -2.611674,-2.21277 -3.676794,-3.43952 -0.478937,-0.55162 -1.202085,-1.49121 -1.617537,-2.09213 -0.807509,-1.16799 -1.465853,-2.33599 -1.975031,-3.50399 -0.291899,-0.66958 0.06825,-1.45172 0.746623,-1.72307 l 11.495281,-4.59811 c 0.67837,-0.27135 1.422507,0.0696 1.726051,0.73396 0.863479,1.88986 2.053379,3.4533 3.5697,4.69031 0.565886,0.46165 1.552226,1.12332 2.188859,1.4813 1.702555,0.95736 3.529698,1.52316 5.481428,1.69739 0.727499,0.065 1.914244,0.0634 2.643257,0.0168 3.494155,-0.22348 6.385085,-1.35179 8.67279,-3.38493 0.545913,-0.48517 1.357129,-1.35318 1.802309,-1.93211 1.89817,-2.46846 2.940988,-5.67347 3.128453,-9.61504 0.0347,-0.72967 0.03081,-1.91461 0.03081,-2.64524 v -1.14907 c 0.11874,-0.61189 -0.281034,-1.20418 -0.89292,-1.32292 -2.143016,2.62665 -3.753742,3.96688 -5.644258,5.06462 -0.631733,0.36683 -1.695687,0.89154 -2.374899,1.16029 -2.145043,0.84877 -4.574697,1.3316 -7.288962,1.44851 -0.729893,0.0314 -1.915348,0.0319 -2.644755,-0.009 -2.389528,-0.13282 -4.738928,-0.62677 -7.048201,-1.48187 -0.685091,-0.25368 -1.772676,-0.72551 -2.425516,-1.05337 -2.184647,-1.09717 -4.187132,-2.49793 -6.007455,-4.2023 -0.533287,-0.49931 -1.351922,-1.35665 -1.826695,-1.9119 -1.715454,-2.00624 -3.175493,-4.28918 -4.380116,-6.84882 -0.311098,-0.66104 -0.775775,-1.75144 -1.027103,-2.43739 -1.028056,-2.8059 -1.60205,-5.86154 -1.721981,-9.16691 -0.02649,-0.73011 -0.02649,-1.91515 0,-2.64526 0.119931,-3.30537 0.693925,-6.36101 1.721982,-9.16691 0.251327,-0.68596 0.711807,-1.77811 1.018253,-2.44132 1.203512,-2.60462 2.662499,-4.8899 4.376961,-6.85583 0.480156,-0.55058 1.298942,-1.40776 1.824923,-1.91477 1.824205,-1.7584 3.831536,-3.19124 6.021991,-4.29852 0.651971,-0.32958 1.739664,-0.80128 2.424754,-1.05496 2.309274,-0.8551 4.658674,-1.34905 7.048201,-1.48187 0.729408,-0.0405 1.914903,-0.0402 2.644713,-0.007 2.719038,0.12361 5.152464,0.63484 7.300277,1.53368 0.673814,0.28199 1.737533,0.80673 2.375529,1.16251 1.88477,1.05104 3.491102,2.36196 4.818997,3.93276 0.471565,0.55783 1.21313,1.04291 1.70628,1.04291 v -4.59267 c 0,-0.73063 0.59229,-1.32292 1.322917,-1.32292 h 11.306033 c 0.73063,0 1.32292,0.59229 1.32292,1.32292 v 48.13898 c 0,0.73063 0.002,1.91537 -0.0198,2.64564 -0.10802,3.57696 -0.65873,6.85103 -1.65213,9.82221 -0.23165,0.69286 -0.65632,1.79942 -0.94431,2.47084 -1.17714,2.74441 -2.68092,5.14041 -4.51132,7.188 -0.48687,0.54464 -1.319046,1.38907 -1.856057,1.88435 -2.023763,1.8665 -4.349758,3.366 -6.977985,4.49852 -0.67092,0.2891 -1.775417,0.71906 -2.465446,0.95899 -2.803626,0.97485 -5.856493,1.51918 -9.158603,1.63301 -0.730157,0.0252 -1.91513,0.025 -2.645356,0.002 z m 3.201764,-38.5481 c 0.900865,-0.0846 1.792064,-0.2562 2.673597,-0.51479 0.700863,-0.20559 1.809618,-0.63015 2.467792,-0.9468 0.884083,-0.42533 1.706451,-0.93295 2.467105,-1.52285 0.577129,-0.44758 1.428337,-1.27591 1.896191,-1.83677 0.667088,-0.79971 1.256092,-1.6775 1.76701,-2.63338 0.344328,-0.6442 0.814522,-1.73428 1.035431,-2.43043 0.394828,-1.24423 0.637858,-2.58505 0.729092,-4.02246 0.04627,-0.72904 0.04627,-1.91508 0,-2.64412 -0.09123,-1.43742 -0.334264,-2.77824 -0.729092,-4.02247 -0.220909,-0.69615 -0.682838,-1.78978 -1.01945,-2.43804 -0.509805,-0.98179 -1.097854,-1.86298 -1.764148,-2.64357 -0.474114,-0.55544 -1.325698,-1.38378 -1.890824,-1.84639 -0.768047,-0.62872 -1.599231,-1.16273 -2.493553,-1.60203 -0.655519,-0.32201 -1.764688,-0.74622 -2.465548,-0.95181 -0.881533,-0.25859 -1.772731,-0.43019 -2.673596,-0.51479 -0.727164,-0.0683 -1.914831,-0.0683 -2.641991,0 -0.900865,0.0846 -1.792064,0.2562 -2.673597,0.51479 -0.700863,0.20559 -1.807147,0.63786 -2.45707,0.97097 -0.848609,0.43496 -1.646279,0.96159 -2.393012,1.57992 -0.56254,0.46581 -1.401752,1.30631 -1.866514,1.8697 -0.676161,0.81964 -1.272152,1.73091 -1.787973,2.7338 -0.334099,0.64958 -0.804531,1.73963 -1.029374,2.43447 -0.387397,1.19719 -0.626339,2.50234 -0.716824,3.91547 -0.04668,0.72901 -0.04651,1.91506 -2.38e-4,2.6441 0.09123,1.43741 0.334265,2.77823 0.729092,4.02246 0.220909,0.69615 0.691102,1.78623 1.035428,2.43043 0.510918,0.95588 1.099921,1.83367 1.767009,2.63337 0.467855,0.56087 1.31904,1.38897 1.893638,1.83983 0.739024,0.57989 1.527793,1.08018 2.366306,1.50088 0.652815,0.32754 1.758666,0.76013 2.459526,0.96572 0.881533,0.25859 1.772731,0.43019 2.673596,0.51479 0.727164,0.0683 1.914831,0.0683 2.641991,0 z"
         style="font-weight:bold;font-size:111.615px;font-family:'Product Sans';-inkscape-font-specification:'Product Sans Bold';display:inline;stroke-width:0.279037;fill:#ff4b11;fill-opacity:1"
         id="path1-06"
         inkscape:label="g vorne" /><path
         d="M 119.27629,160.69411 V 108.6486 c 0,-0.73063 0.70597,-1.32292 1.57683,-1.32292 h 14.27424 c 0.87086,0 1.57683,0.59229 1.57683,1.32292 v 52.04551 c 0,0.73063 -0.70597,1.32292 -1.57683,1.32292 h -14.27424 c -0.87086,0 -1.57683,-0.59229 -1.57683,-1.32292 z"
         style="font-weight:bold;font-size:111.615px;font-family:'Product Sans';-inkscape-font-specification:'Product Sans Bold';display:inline;stroke-width:0.30464;fill:#ff4b11;fill-opacity:1"
         id="path1-0"
         inkscape:label="i" /><path
         style="font-weight:bold;font-size:111.615px;font-family:'Product Sans';-inkscape-font-specification:'Product Sans Bold';display:inline;fill:#ff4b11;fill-opacity:1;stroke-width:0.279037"
         d="m 171.20698,184.24616 c -1.07064,-0.10232 -2.10506,-0.25074 -3.10327,-0.44525 -1.29046,-0.25146 -3.34137,-0.84674 -4.57919,-1.29046 -0.13751,-0.0493 -1.25429,-0.45045 -2.44707,-1.00356 -0.41669,-0.19322 -0.82434,-0.39457 -1.22295,-0.60406 -1.16373,-0.61159 -2.94713,-1.78732 -3.99789,-2.57787 -0.11675,-0.0878 -1.06556,-0.80142 -2.03228,-1.69241 -0.069,-0.0636 -0.1374,-0.12734 -0.20535,-0.19139 -0.95665,-0.90164 -2.35024,-2.52257 -3.11517,-3.59191 -0.0849,-0.11869 -0.77478,-1.08629 -1.40271,-2.24111 -0.43447,-0.79904 -0.94075,-2.81677 0.0222,-3.20198 l 9.28434,-3.71374 c 1.22106,-0.48842 3.50649,-1.09261 3.93698,-0.15041 1.39117,2.40074 1.62913,2.71566 1.88025,3.01742 0.83993,1.00931 2.52062,2.34944 3.64989,3.02174 0.12531,0.0746 1.15493,0.67966 2.39395,1.11555 0.32066,0.11281 0.64524,0.21326 0.97376,0.30135 1.26866,0.34021 3.40876,0.50162 4.72189,0.44379 0.14561,-0.006 1.33494,-0.0608 2.6231,-0.32073 1.61904,-0.32674 3.08474,-0.88349 4.39708,-1.67027 1.12632,-0.67525 2.72241,-2.11637 3.55431,-3.13362 0.0922,-0.11277 0.83462,-1.04808 1.43726,-2.21503 0.79093,-1.53156 1.33311,-3.27732 1.62653,-5.23728 0.19464,-1.30007 0.26022,-3.43505 0.25968,-4.75008 -6e-5,-0.14601 -9e-5,-0.77881 -9e-5,-1.41343 -0.89292,-1.32292 -0.89292,-1.32292 -0.89292,-1.32292 -2.29962,2.56933 -2.98646,3.19701 -3.67143,3.73453 -1.03376,0.81124 -2.89419,1.87572 -4.10389,2.39005 -0.13402,0.057 -1.23516,0.50531 -2.50784,0.83335 -0.84704,0.21832 -1.73148,0.38856 -2.65331,0.51072 -1.30331,0.17272 -3.43853,0.25875 -4.75241,0.20809 -0.14586,-0.006 -1.33237,-0.0593 -2.63089,-0.26405 -0.80891,-0.12757 -1.61311,-0.29746 -2.41261,-0.50967 -1.27063,-0.33727 -3.27205,-1.08813 -4.45712,-1.65754 -0.13147,-0.0632 -1.19761,-0.58554 -2.31159,-1.28361 -0.73077,-0.45794 -1.43875,-0.95385 -2.12395,-1.48775 -1.03703,-0.80804 -2.59087,-2.27561 -3.46231,-3.26009 -0.0966,-0.10918 -0.87498,-1.00473 -1.64294,-2.07187 -0.65131,-0.90504 -1.25825,-1.85815 -1.82084,-2.85931 -0.64412,-1.14626 -1.55174,-3.07941 -2.02377,-4.30668 -0.0524,-0.13626 -0.47007,-1.2473 -0.81103,-2.51701 -0.38855,-1.44692 -0.66693,-2.95444 -0.83514,-4.52254 -0.14024,-1.30736 -0.20965,-3.44115 -0.17686,-4.75572 0.004,-0.146 0.0366,-1.3317 0.17686,-2.63906 0.16821,-1.5681 0.44659,-3.07562 0.83514,-4.52254 0.34096,-1.26971 1.08798,-3.27074 1.62668,-4.47025 0.0598,-0.13324 0.54779,-1.21459 1.18639,-2.36392 0.56214,-1.01172 1.16875,-1.96786 1.81983,-2.8684 0.77027,-1.06539 2.18127,-2.66938 3.11608,-3.59411 0.10385,-0.10272 0.95005,-0.93558 1.97659,-1.75689 0.69818,-0.55861 1.42007,-1.07505 2.16568,-1.54933 1.1092,-0.70557 3.02185,-1.66062 4.24681,-2.13815 0.13589,-0.053 1.24486,-0.47716 2.51549,-0.81442 0.7995,-0.21222 1.6037,-0.38211 2.41261,-0.50967 1.29852,-0.20479 3.43334,-0.30978 4.74753,-0.26874 0.14588,0.005 1.33265,0.0439 2.63463,0.22598 0.93108,0.13019 1.824,0.31216 2.67878,0.54589 1.26767,0.34664 3.2361,1.18548 4.39441,1.80748 0.12869,0.0691 1.17695,0.63271 2.2318,1.41655 0.40178,0.29856 0.78757,0.61204 1.15736,0.94046 0.98248,0.87256 2.26373,2.74549 3.36818,2.7455 0,-3.6026 0.28964,-5.91558 1.32292,-5.91559 h 8.92478 c 1.31513,0 3.70416,0.28964 3.70417,1.32292 v 45.75773 c 0,1.31513 0.0135,3.44759 -0.0133,4.76243 -0.003,0.14608 -0.0302,1.33149 -0.14742,2.64119 -0.16137,1.80281 -0.44432,3.52244 -0.84884,5.15888 -0.31551,1.27636 -1.00046,3.29909 -1.50406,4.51376 -0.0559,0.13491 -0.51306,1.23006 -1.12836,2.39196 -0.59903,1.13116 -1.26203,2.19409 -1.98899,3.18879 -0.77568,1.06137 -2.20662,2.64871 -3.15975,3.55446 -0.10587,0.10061 -0.9706,0.91477 -2.0209,1.70534 -0.94688,0.71273 -1.94983,1.35736 -3.00886,1.9339 -1.15465,0.6286 -3.12025,1.46464 -4.35727,1.91068 -0.13745,0.0496 -1.25533,0.44827 -2.52947,0.7724 -1.44098,0.36657 -2.942,0.62941 -4.50307,0.78852 -1.30811,0.13334 -3.4417,0.19792 -4.75639,0.16944 -0.14603,-0.003 -0.26434,-0.007 -0.26432,-0.007 z m 7.91872,-38.81997 c 0.1844,-0.0494 1.36238,-0.38996 2.56112,-0.92902 0.13299,-0.0598 1.21851,-0.55718 2.28685,-1.32132 0.23511,-0.16818 1.27068,-0.96987 2.14442,-1.95096 0.0964,-0.10819 0.87165,-1.01244 1.54665,-2.13958 0.22573,-0.37693 0.90743,-1.63351 1.34352,-2.87323 0.0482,-0.13712 0.4211,-1.26805 0.62617,-2.56583 0.14796,-0.93629 0.25794,-2.77307 0.20062,-4.08648 -0.006,-0.14575 -0.0608,-1.33494 -0.31715,-2.62386 -0.18487,-0.92956 -0.75053,-2.68374 -1.32696,-3.86483 -0.0639,-0.13087 -0.59102,-1.20166 -1.38015,-2.25185 -0.26664,-0.35485 -1.19709,-1.4441 -2.19132,-2.30354 -0.11032,-0.0954 -1.02116,-0.86922 -2.17265,-1.50066 -0.28528,-0.15644 -1.48465,-0.74417 -2.73609,-1.14564 -0.1388,-0.0445 -1.27771,-0.40092 -2.58213,-0.55593 -0.18957,-0.0225 -1.41164,-0.14169 -2.72302,-0.0571 -0.14522,0.009 -1.33461,0.10215 -2.60348,0.44196 -0.1844,0.0494 -1.36568,0.38573 -2.55339,0.94812 -0.13152,0.0623 -1.20365,0.58896 -2.24495,1.38928 -0.21543,0.16558 -1.21434,0.98752 -2.08019,1.97602 -0.0959,0.10945 -0.86614,1.01907 -1.52981,2.15282 -0.24874,0.42494 -0.93217,1.72795 -1.37319,2.96616 -0.0489,0.13733 -0.42792,1.26729 -0.62909,2.56554 -0.13608,0.8782 -0.24445,2.6667 -0.18711,3.9801 0.006,0.14574 0.0608,1.33493 0.31715,2.62385 0.18487,0.92956 0.75168,2.68416 1.34052,3.85897 0.0651,0.12995 0.60811,1.19058 1.39476,2.24294 0.26304,0.35189 1.17684,1.4537 2.18311,2.29845 0.11102,0.0932 1.03669,0.84565 2.19239,1.46993 0.20682,0.11172 1.33474,0.68011 2.58519,1.0844 0.13853,0.0448 1.2773,0.40113 2.58172,0.55614 0.18956,0.0225 1.41163,0.14169 2.72301,0.0571 0.14522,-0.009 1.33461,-0.10215 2.60348,-0.44195 z"
         id="text1"
         aria-label="gig"
         sodipodi:nodetypes="ssssssssssssssssssccssssssssssssssssssssssscsssssssssssssssssssssssssssssssssssssssssssssssss"
         inkscape:label="g hinten"
         inkscape:path-effect="#path-effect3"
         inkscape:original-d="m 173.58313,184.39571 c -2.82802,-0.09 -5.42636,-0.4724 -7.795,-1.1471 -0.70259,-0.20013 -1.82702,-0.57495 -2.51214,-0.82861 -2.00702,-0.7431 -3.83215,-1.64991 -5.47537,-2.72042 -0.6121,-0.39877 -1.57554,-1.08926 -2.15459,-1.53471 -1.38608,-1.06626 -2.61167,-2.21277 -3.67679,-3.43952 -0.47894,-0.55162 -1.20209,-1.49121 -1.61754,-2.09213 -0.80751,-1.16799 -1.46585,-2.33599 -1.97503,-3.50399 -0.2919,-0.66958 0.0683,-1.45172 0.74663,-1.72307 l 11.49527,-4.59811 c 0.67837,-0.27135 1.42251,0.0696 1.72605,0.73396 0.86348,1.88986 2.05338,3.4533 3.5697,4.69031 0.56589,0.46165 1.55223,1.12332 2.18886,1.4813 1.70256,0.95736 3.5297,1.52316 5.48144,1.69739 0.7275,0.065 1.91424,0.0634 2.64325,0.0168 3.49416,-0.22348 6.38509,-1.35179 8.67279,-3.38493 0.54592,-0.48517 1.35713,-1.35318 1.80231,-1.93211 1.89817,-2.46846 2.94099,-5.67347 3.12846,-9.61504 0.0347,-0.72967 0.0308,-1.91461 0.0308,-2.64524 v -1.14907 c 0.11874,-0.61189 -0.28103,-1.20418 -0.89292,-1.32292 -2.14302,2.62665 -3.75375,3.96688 -5.64426,5.06462 -0.63174,0.36683 -1.69569,0.89154 -2.3749,1.16029 -2.14504,0.84877 -4.5747,1.3316 -7.28896,1.44851 -0.7299,0.0314 -1.91535,0.0319 -2.64476,-0.009 -2.38953,-0.13282 -4.73893,-0.62677 -7.0482,-1.48187 -0.68509,-0.25368 -1.77268,-0.72551 -2.42552,-1.05337 -2.18464,-1.09717 -4.18712,-2.49793 -6.00745,-4.2023 -0.53328,-0.49931 -1.35192,-1.35665 -1.82669,-1.9119 -1.71546,-2.00624 -3.17549,-4.28918 -4.38012,-6.84882 -0.3111,-0.66104 -0.77577,-1.75144 -1.0271,-2.43739 -1.02806,-2.8059 -1.60205,-5.86154 -1.72198,-9.16691 -0.0265,-0.73011 -0.0265,-1.91515 0,-2.64526 0.11993,-3.30537 0.69392,-6.36101 1.72198,-9.16691 0.25133,-0.68596 0.71181,-1.77811 1.01825,-2.44132 1.20351,-2.60462 2.6625,-4.8899 4.37696,-6.85583 0.48016,-0.55058 1.29895,-1.40776 1.82493,-1.91477 1.8242,-1.7584 3.83153,-3.19124 6.02198,-4.29852 0.65197,-0.32958 1.73967,-0.80128 2.42476,-1.05496 2.30927,-0.8551 4.65867,-1.34905 7.0482,-1.48187 0.72941,-0.0405 1.9149,-0.0402 2.64471,-0.007 2.71904,0.12361 5.15247,0.63484 7.30028,1.53368 0.67381,0.28199 1.73753,0.80673 2.37553,1.16251 1.88477,1.05104 3.4911,2.36196 4.819,3.93276 0.47156,0.55783 1.21313,1.04291 1.70628,1.04291 v -4.59267 c 0,-0.73063 0.59229,-1.32292 1.32292,-1.32292 h 11.30603 c 0.73063,0 1.32292,0.59229 1.32292,1.32292 v 48.13898 c 0,0.73063 0.002,1.91537 -0.0198,2.64564 -0.10802,3.57696 -0.65873,6.85103 -1.65213,9.82221 -0.23165,0.69286 -0.65632,1.79942 -0.94431,2.47084 -1.17714,2.74441 -2.68092,5.14041 -4.51132,7.188 -0.48687,0.54464 -1.31905,1.38907 -1.85606,1.88435 -2.02376,1.8665 -4.34976,3.366 -6.97799,4.49852 -0.67092,0.2891 -1.77541,0.71906 -2.46544,0.95899 -2.80363,0.97485 -5.85649,1.51918 -9.1586,1.63301 -0.73016,0.0252 -1.91513,0.025 -2.64536,0.002 z m 3.20176,-38.5481 c 0.90087,-0.0846 1.79207,-0.2562 2.6736,-0.51479 0.70087,-0.20559 1.80962,-0.63015 2.4678,-0.9468 0.88408,-0.42533 1.70645,-0.93295 2.4671,-1.52285 0.57713,-0.44758 1.42834,-1.27591 1.89619,-1.83677 0.66709,-0.79971 1.25609,-1.6775 1.76701,-2.63338 0.34433,-0.6442 0.81452,-1.73428 1.03543,-2.43043 0.39483,-1.24423 0.63786,-2.58505 0.72909,-4.02246 0.0463,-0.72904 0.0463,-1.91508 0,-2.64412 -0.0912,-1.43742 -0.33426,-2.77824 -0.72909,-4.02247 -0.22091,-0.69615 -0.68284,-1.78978 -1.01945,-2.43804 -0.5098,-0.98179 -1.09785,-1.86298 -1.76415,-2.64357 -0.47411,-0.55544 -1.32569,-1.38378 -1.89082,-1.84639 -0.76805,-0.62872 -1.59923,-1.16273 -2.49355,-1.60203 -0.65552,-0.32201 -1.76469,-0.74622 -2.46555,-0.95181 -0.88153,-0.25859 -1.77274,-0.43019 -2.6736,-0.51479 -0.72716,-0.0683 -1.91483,-0.0683 -2.64199,0 -0.90087,0.0846 -1.79206,0.2562 -2.67359,0.51479 -0.70087,0.20559 -1.80715,0.63786 -2.45707,0.97097 -0.84861,0.43495 -1.64629,0.96159 -2.39302,1.57992 -0.56254,0.46581 -1.40175,1.30631 -1.86651,1.8697 -0.67617,0.81964 -1.27216,1.73091 -1.78798,2.7338 -0.33409,0.64958 -0.80453,1.73963 -1.02937,2.43447 -0.3874,1.19719 -0.62634,2.50234 -0.71683,3.91547 -0.0467,0.72901 -0.0465,1.91506 -2.3e-4,2.6441 0.0912,1.43741 0.33426,2.77823 0.72909,4.02246 0.22091,0.69615 0.6911,1.78623 1.03543,2.43043 0.51092,0.95588 1.09992,1.83367 1.767,2.63337 0.46786,0.56087 1.31905,1.38897 1.89364,1.83983 0.73903,0.57989 1.5278,1.08018 2.36631,1.50088 0.65282,0.32754 1.75867,0.76013 2.45953,0.96572 0.88153,0.25859 1.77273,0.43019 2.67359,0.51479 0.72716,0.0683 1.91483,0.0683 2.64199,0 z" /><path
         d="m 136.91306,71.608315 c 0.10866,8.107795 0.11341,14.982931 -0.0185,20.302177 -0.10421,4.199633 -3.99183,7.606168 -8.91604,7.606168 -4.9242,0 -10.31921,-2.8207 -10.31921,-7.021516 0,-4.200819 4.07379,-8.107504 8.9862,-8.448066 2.69865,-0.187089 5.40329,0.287197 6.2666,1.299371 -0.11907,-10.449186 0.0426,-18.813748 -0.0269,-24.609612 -0.0347,-2.900221 3.54756,-1.927296 4.26036,-0.595829 0.98379,2.064837 2.54728,4.887204 4.58817,5.794883 3.29893,1.467965 5.17084,2.632747 5.91471,6.886549 0.51879,1.861127 0.45027,3.337031 0.33062,4.365715 -0.7984,6.864627 -3.56465,5.646801 -3.83942,0.751267 -0.0828,-1.474864 -0.80191,-3.28157 -1.70055,-4.456588 -1.30247,-1.703042 -4.69715,-1.846267 -5.52609,-1.874519 z"
         id="path1"
         style="stroke-width:0.0410732;fill:#ff4b11;fill-opacity:1"
         sodipodi:nodetypes="ccssscscccssscc"
         inkscape:label="note" /></g></g></svg>
